<svg id="圖層_1" data-name="圖層 1" xmlns="http://www.w3.org/2000/svg" viewBox="0 0 418.28 420.94"><defs><style>.cls-1{fill:#feeddb;}.cls-2{fill:#412424;}.cls-3{fill:#9dd8e4;}.cls-4{fill:#00bcf8;}.cls-5{fill:#8f7870;}.cls-6{fill:#5b3f3c;}.cls-7{fill:#462a29;}.cls-8{fill:#513634;}.cls-9{fill:#8c746d;}.cls-10{fill:#715753;}.cls-11{fill:#725854;}.cls-12{fill:#a7cdd7;}.cls-13{fill:#472b2a;}.cls-14{fill:#422626;}.cls-15{fill:#634945;}.cls-16{fill:#fe988c;}.cls-17{fill:#fe988d;}.cls-18{fill:#ecd8dd;}.cls-19{fill:#fda350;}.cls-20{fill:#ebd8dd;}.cls-21{fill:#432727;}.cls-22{fill:#02bdf8;}.cls-23{fill:#e9e1d4;}.cls-24{fill:#9dd7e3;}.cls-25{fill:#6e5550;}.cls-26{fill:#6e5450;}.cls-27{fill:#826a63;}.cls-28{fill:#6a504c;}.cls-29{fill:#8a726b;}.cls-30{fill:#836b64;}.cls-31{fill:#7d645e;}.cls-32{fill:#fea24f;}.cls-33{fill:#422727;}.cls-34{fill:#452828;}.cls-35{fill:#58383a;}.cls-36{fill:#523233;}.cls-37{fill:#5c3b3e;}.cls-38{fill:#5d4245;}.cls-39{fill:#fe6963;}.cls-40{fill:#9dd5e0;}.cls-41{fill:#5f5e62;}.cls-42{fill:#524648;}.cls-43{fill:#595256;}.cls-44{fill:#432828;}.cls-45{fill:#554c4f;}.cls-46{fill:#414f5a;}.cls-47{fill:#42535e;}.cls-48{fill:#334c5b;}.cls-49{fill:#465e6b;}.cls-50{fill:#523634;}.cls-51{fill:#386375;}.cls-52{fill:#446270;}.cls-53{fill:#4a5963;}.cls-54{fill:#425a67;}.cls-55{fill:#383840;}.cls-56{fill:#55585e;}.cls-57{fill:#9e877e;}.cls-58{fill:#38383f;}.cls-59{fill:#39363d;}.cls-60{fill:#947c74;}.cls-61{fill:#89716a;}.cls-62{fill:#383942;}.cls-63{fill:#4f3432;}.cls-64{fill:#593e3b;}.cls-65{fill:#fdecda;}.cls-66{fill:#4f636d;}.cls-67{fill:#495e69;}.cls-68{fill:#475964;}.cls-69{fill:#535b62;}.cls-70{fill:#725954;}.cls-71{fill:#515b62;}.cls-72{fill:#735955;}.cls-73{fill:#465660;}.cls-74{fill:#6d544f;}.cls-75{fill:#565357;}.cls-76{fill:#52575d;}.cls-77{fill:#575c61;}.cls-78{fill:#6f5550;}.cls-79{fill:#856d66;}.cls-80{fill:#927b73;}.cls-81{fill:#988179;}.cls-82{fill:#baa499;}.cls-83{fill:#b19b91;}.cls-84{fill:#988178;}.cls-85{fill:#ae978d;}.cls-86{fill:#442626;}.cls-87{fill:#422524;}.cls-88{fill:#452626;}</style></defs><path class="cls-1" d="M209.7,356.46c-8.34,1.62-16.69,3.2-25,4.86-13.35,2.67-26.73,5.58-40.39,5.41-18.11-.24-35.13-4.7-49.91-15.7-2.94-2.19-6.23-4.15-8.23-7.44-.56-4.17,1.44-7.77,2.78-11.44a104.77,104.77,0,0,1,9.16-19.1c1.35-2,2.55-4.15,3.84-6.21.59-.82,1.12-1.68,1.68-2.52,1.62-2.51,3.41-4.9,5.19-7.3a16.58,16.58,0,0,0,1.73-2.44c4.21-5.71,8.75-11.15,13.36-16.54q12.78-14.82,26.54-28.7c3.74-3.8,8-7.11,11.76-10.87,1.28-1.27,2.76-2.59,4.89-2.26,1.92,1.15.92,2.6.3,3.89-7.62,15.77-10,32.69-11.44,49.92-.9,11-.52,21.9-.57,32.84,0,3.69-1.25,5.92-4.55,7.71C144,334.26,141,340.21,142,348c.89,7.07,5.19,11.44,11.65,13.74,8.37,3,18-2,21-10.71s-1.52-19-10.48-21.3c-5.73-1.46-7.71-4.32-7.81-9.72-.3-17.83.65-35.55,4.05-53.1a2.84,2.84,0,0,1,2.35-1.67,6.16,6.16,0,0,1,3.73,1.46c7.27,5.15,14.62,10.19,21.1,16.35a11.64,11.64,0,0,0,3.28,3.13c4.5,2.95,7.91,7,11.19,11.15a10.18,10.18,0,0,0,3,3.23,39.8,39.8,0,0,1,6.41,9.19c.35,1.78.46,3.59.79,5.37a2.43,2.43,0,0,1-.14,1,3.89,3.89,0,0,0-.57,3.21,4.81,4.81,0,0,1-.07,1c-.23,1.23-.14,2.48-.29,3.72a26.09,26.09,0,0,0-.55,7.32,23.59,23.59,0,0,0,.18,3.94,2.93,2.93,0,0,1-.19,1.1c-1.53,2.83-.49,5.75-.26,8.64a5.36,5.36,0,0,1-.13,1.13c-.62,2.66-.3,5.34-.29,8A3.85,3.85,0,0,1,209.7,356.46Z"/><path class="cls-2" d="M144.29,83.22c5.15-12.19,14.29-18.78,27.54-19.5,1.44-.08,2.13-.36,2.53-1.95C177.74,48.4,191.14,40,205,42.44A37.3,37.3,0,0,1,226.94,55c1.38,1.55,2.13,1.91,4.14.72,8.21-4.86,18.26-1.25,21.9,7.77a3.63,3.63,0,0,0,3.63,2.73c8.45.85,14.14,5.6,17.5,13.28,2,2.36,2.15,5.24,2.13,8.08A5.41,5.41,0,0,0,278.3,92c6.65,5.69,8.27,12.94,6.41,21.21-1.34,6-3.88,11.5-6.07,17.16-.81,1.73-.9,3.9-2.94,4.9a2.83,2.83,0,0,1-1.16,0c-8.92-3.61-15.75-9.92-21.61-17.3a20.2,20.2,0,0,1-4.59-14.27c.17-2.29-.46-3.69-2.77-4.55-5.43-2-8.63-6.22-10.14-11.66-.6-2.16-1.32-2.33-3.31-1.54-7.59,3-15.36,2.77-23,.39-2.47-.77-3.88-.49-5.18,1.81-5.43,9.58-14.07,13.72-24.75,13.93-2.72,0-3.56,1.06-4,3.6-2.38,12.51-9.55,21.36-21,26.79a7.6,7.6,0,0,1-2.26.48,5,5,0,0,1-3-1.87c-4.63-6-6.75-12.39-3.22-19.74.91-1.91-.13-3.64-1-5.3-2.91-5.79-3.08-12-2.48-18.21A6.52,6.52,0,0,1,144.29,83.22Z"/><path class="cls-3" d="M277.84,130.27c1.92-6.29,5.18-12.15,6.18-18.73,1.2-7.82-.53-14.62-7.36-19.4a3,3,0,0,1-1.59-3.1c.54-3.29-.35-6.42-1-9.59,4.4,1,8.27,3.33,12.53,4.63,1.29,1.26.8,2.77.58,4.23-1.46,9.81,2.29,17.48,10.3,22.8,7.54,5,15.54,4.42,23.43.32,1.49-.77,2.65-2.39,4.65-2,16.07,14.58,28.15,31.61,32.58,53.3.54,2.66.77,5.38,1.15,8.08.34,1.31-.5,2.16-1.29,2.91-7.53,7-10.53,16.46-13.53,25.85-2.24,7-3.74,14.21-5.4,21.38-.38,1.66-.5,3.5-2,4.69-1.81.8-3.65-.07-5.5.07-5.06.4-8.84,2.93-12,6.68-1.32.87-1.88,2.73-3.74,2.91a1.75,1.75,0,0,1-.41-1,2.54,2.54,0,0,1,.43-2.59,11.13,11.13,0,0,0,1.66-2.85c7.88-17.37,15.25-34.93,19.69-53.56,1.82-7.63,3.55-15.31,3-23.26-.4-6.32-2.43-11.92-7.35-16.2a13.46,13.46,0,0,0-2.74-1.94c-4.67-2.42-5.79-1.72-5.82,3.56,0,3,.15,6-.11,9-.1,1.09.27,3-2,2.42-1.36-3.85-.35-7.84-.7-11.75-.13-1.54.59-3.19-.56-4.58-10.17,2.29-17.07,11.71-17.6,23.14-.78,16.75,2.53,32.93,5.95,49.13,2,9.49,4.22,18.94,5.81,28.5a5.54,5.54,0,0,0,.26,1.14,10.48,10.48,0,0,1-.06,3.4,23.07,23.07,0,0,1-1.06,5c-.64,1.66-.27,3.44-.61,5.14a33.28,33.28,0,0,0-1.45,8.69c-.54,2.06-.85,4.17-1.3,6.26a5.29,5.29,0,0,1-.77,2.79c-4.26-.62-6.33-3.9-8.56-7-1.08-16.39-1.77-32.82-5.4-48.93a137.61,137.61,0,0,0-4.54-15.8,25.06,25.06,0,0,0-6.91-10.51c-4.72-4.2-9.95-6.1-16.1-3.2-8.13,4.81-10.77,13.83-7,24.18,2.93,8,7.78,15,12.69,21.86,4.26,6,8.9,11.64,13.48,17.37,1.12,1.39,2.72,2.69,2.08,4.88-1.7,1.2-2.78-.24-3.91-1-7.72-5.37-15.37-10.83-23.45-15.65-4.6-4.48-8.57-9.56-13.65-13.6-5.56-4.42-11-8.81-18-10.91a4.27,4.27,0,0,1-2.42-1.65,12.5,12.5,0,0,1-1.2-6.34,7.83,7.83,0,0,1,.45-2.88c.76-1.54,2.3-1.78,3.72-2.22A60.39,60.39,0,0,0,266.59,167a8,8,0,0,1,2.87-3.36c9.17-1.18,15.25-6.38,19.18-14.54,4.4-9.13-.69-18.82-10.13-18.49A1.23,1.23,0,0,1,277.84,130.27Z"/><path class="cls-3" d="M144.29,83.22c-2.51,8.63-1.92,17,2.54,24.87.51.89.91,1.62.28,2.72-3.89,6.82-2.54,13.1,2.08,19a10.13,10.13,0,0,1,.72,1.29,2.4,2.4,0,0,1-2,.67c-6.28.26-10.35,4.3-10.63,10.54-.42,9.46,8.35,20.06,17.79,21.55,2.18.34,4.52.19,6.38,1.74a56.94,56.94,0,0,0,10.79,14,60.14,60.14,0,0,0,28.39,15.52c1.22.29,2.89-.08,3.24,1.82a19.57,19.57,0,0,0-.94,5.42c-.68,1.95-.1,4.23-1.52,6a85.26,85.26,0,0,0-18.94,12.41c-4.54,3.8-7.68,8.76-11.74,12.92-1.67-.12-2,1.71-3.26,2.23-.44.18-.88.38-1.3.6a210.72,210.72,0,0,0-23.43,22.17c-6,6.7-12.27,13.22-18.42,19.82-1.21-1.31-.71-2.8-.38-4.23,2.89-12.84,5.56-25.73,8.11-38.65.28-1.45.46-3,1.54-4.12,1.36-1,2.63-.11,3.91.22,9.09,2.32,16.86-.06,23-7s7.06-14.81,3.51-23c-3.64-8.41-10.53-12.66-19.59-13.44-1.48-.12-3,.14-4.37-.71-1.11-1.24-.82-2.79-1-4.25-.33-3.85-.79-7.67-3-11-2.75-4.22-7.23-5.42-11.65-3-6,3.25-9.56,8.51-12.07,14.63-.84,2-1.09,4.36-2.7,6.07a3.9,3.9,0,0,1-1.25.79c-7.37,2.66-8,2.32-10.13-5.23a2.33,2.33,0,0,0-1-1.32c.14,2,.82,3.55.88,5.16.06,2-.06,3.9-2.86,3.73-2.09-.69-2-2.67-2.45-4.28A38.34,38.34,0,0,0,86.6,175c-3.92-5.11-7.29-6.06-13.19-3.65a2.79,2.79,0,0,1-2.15.29,139.92,139.92,0,0,1,9.09-24.41c.4-.87.71-1.95,2-1.85a5.11,5.11,0,0,1,1.57,2.89,15.55,15.55,0,0,0,9.31,10c7.06,3.2,13.12.66,18-4.16,10-9.93,14.69-22,11.8-36.19-.84-4.13-2.47-8.16-7-9.88-1.6-1.14-3.88-1.44-4.56-3.71,4-2,6.91-5.49,10.54-8C129.13,91.42,136.29,86.62,144.29,83.22Z"/><path class="cls-1" d="M302.35,259.1l7.44,6.66a2.48,2.48,0,0,1,1.41.62,92.15,92.15,0,0,1,9.8,10.44c12.45,15.71,23.09,32.63,33.29,49.84,1.55,2.62,4.07,4.79,4.2,8.15-2.15,2.53-5.35,3.13-8.2,4.16a213,213,0,0,1-49.82,11.51,89.46,89.46,0,0,1-9.26.66c-2.84-2-5.63-3.56-9.16-1.19a2.43,2.43,0,0,1-3.34-.76,3,3,0,0,1-.18-.36c-.63-1.46.84-2.22,1.83-2.85a43.33,43.33,0,0,0,16.31-18.54c6.78-14.52,3.1-36-8-46.63a7,7,0,0,0-1.68-1.48c-5.23-2.34-6.28-7-7.48-12A93.79,93.79,0,0,0,264.4,235c-.75-1.06-2.1-1.9-1.57-3.55,7.08,3.19,13,8.23,19.45,12.36,2.48,1.59,4.54,3.86,7.42,4.83,3.26.68,4.77,3.84,7.52,5.28,1,.54,1.81,1.62,2.84,2.29a5.85,5.85,0,0,1,1.05,1C301.6,257.78,301.75,258.58,302.35,259.1Z"/><path class="cls-1" d="M209.7,356.46l-.86-1.5c1.12-3-.28-6.16.78-9.13l0-.89c.48-2.83-.9-5.79.58-8.55l.1-1c-.68-1.1-.22-2.31-.36-3.46a15.65,15.65,0,0,1,1.79-8.3,24,24,0,0,0,1.36-3.47,25.56,25.56,0,0,1,1.94-4.26,11.06,11.06,0,0,0,2.12-3.43c6-11.94,14.87-21.25,25.65-28.88a81.89,81.89,0,0,1,7.92-5.53c2.6-1.4,5-3,8.32-2.33,2,.38,4-1,4.93-3.23a4.61,4.61,0,0,1,.42-1,2.84,2.84,0,0,1,1.67-1.21,16.13,16.13,0,0,0,3.75-1.34,7.59,7.59,0,0,1,2.53-1.17c1.27-.18.1-.74.21-1.09a6.34,6.34,0,0,0-1.46-2.9c-1.32-1.89-2.6-3.81-3.9-5.72a44.7,44.7,0,0,0-8.65-8.4c-1.07-.82-2.06-1.75-3.12-2.58-5.55-4.38-5.62-6.27-.42-10.94,1.95-.85,3-3.62,5.77-2.74,4,4,6.69,8.94,9.34,13.84a100.72,100.72,0,0,1,8.43,22.27c1.21,4.54.54,8.13-2.58,11.68a78.85,78.85,0,0,0-15.2,26.34c-2.6,7.4-4.72,14.94-3.37,23a21.82,21.82,0,0,0,9.19,14.78c1.24.88,3.35,1.59,2.75,3.51-.66,2.11-2.89,1.9-4.48,1.33-3.61-1.3-4.92,2-7.28,3.23A292.12,292.12,0,0,0,209.7,356.46Z"/><path class="cls-3" d="M358.52,334.81c-8.28-13-15.93-26.34-24.72-39-4.38-6.32-9-12.47-13.51-18.7,0-3.69,2.88-5.79,4.63-8.52a6.65,6.65,0,0,0,1.59-2.6c.49-1,1-2,2.31-2.08,1.9.33,3.3,1.62,4.82,2.65a35.06,35.06,0,0,0,16.32,5.6,14.74,14.74,0,0,0,11.58-3.92c7.9-5.83,6.66-15.09,2.71-22.41-1.9-3.51-5.05-6.08-6.9-9.6,2.62-4.94,5.95-9.24,10.81-12.2,3.49,7.82,7.39,15.49,9.64,23.79,3.14,11.56,3,23.29,1.08,35-2.06,12.48-4.5,24.89-8.42,36.92C368.39,326.13,364.81,331.64,358.52,334.81Z"/><path class="cls-1" d="M325.6,109.43c-9.63,7.37-20.19,8.25-28.93,2.42-8.45-5.65-12.11-14.59-10.18-24.81a21.54,21.54,0,0,0,.15-3c3.1-5.26,6.42-10.09,12.25-13a23.25,23.25,0,0,1,28.1,5.4c8.87,10.54,7.33,23.27-.26,31.5C326.31,108.41,326,108.94,325.6,109.43Z"/><path class="cls-2" d="M257.62,353.4c1.95-4.46,3.13-5.06,7.66-3.91,1.38.36,1.38.36,3.84-.7-.05-.21,0-.53-.15-.61-12.48-7.37-14.81-18.57-11.82-31.66a83.73,83.73,0,0,1,19.32-37.4,7.19,7.19,0,0,0,1.74-7.08,97.39,97.39,0,0,0-17.78-38.26c-.37-.74-1.26-.35-1.76-.81-3.38-3.88-7.13-7.38-10.79-11-5.18-4.39-10.43-8.64-16.92-11a3.84,3.84,0,0,1-2.4-1.6A3,3,0,0,1,229,206c9.17,1.8,15.92,7.7,22.69,13.5a79.65,79.65,0,0,1,11.13,11.94,93.49,93.49,0,0,1,18.66,40.11,7.42,7.42,0,0,0,3.73,5.42c9.13,5.65,13.14,14.57,14.92,24.74,3.48,19.87-3.51,35.09-20.45,45.87a14.79,14.79,0,0,0-1.25,1c1.54.33,2.64,1.36,4.34.35,4.25-2.52,5.61-2.06,8.46,2.17.06,2.66-.56,5-3.41,5.91s-4.71-.51-6.42-3-5.22-2.93-7.92-2.75c-2.12.14-5.24.4-6,3.82a4.41,4.41,0,0,1-5,3.49C259.23,358.42,258.2,356.1,257.62,353.4Z"/><path class="cls-4" d="M111.49,104.36l4.61,2.85c6.33,4.06,6.78,10.72,6.7,17.07-.06,4.25,0,9-3.36,12.56a5.51,5.51,0,0,1-3.65.11A137.54,137.54,0,0,1,89.05,128c-1.78-.82-3.65-1.68-4.3-3.84,2.87-5.94,6.15-11.57,11.49-15.74C100.77,104.89,105.71,103.14,111.49,104.36Z"/><path class="cls-1" d="M84.75,124.18c8.1,5.58,17.47,8,26.71,10.65,2.49.73,5.07,1.12,7.6,1.67a2.35,2.35,0,0,1,.27,2.78c-3.3,7.87-8,14.47-15.76,18.67a12.65,12.65,0,0,1-10.72.9c-6.59-2.08-9.34-7.15-10.47-13.47-1.84-5.93-.23-11.62,1.2-17.32C83.91,126.75,84.36,125.48,84.75,124.18Z"/><path class="cls-3" d="M62.28,277.18q6.63,6.81,13.27,13.61c1,1,2,2,1.34,3.56a4.55,4.55,0,0,1-1.49,2.86,3.74,3.74,0,0,0-1,2.54c-.07,1.69,0,3.38,0,5.06A3,3,0,0,0,75.89,308a10,10,0,0,1,2,2.2,4.43,4.43,0,0,0,4,2.31,2.88,2.88,0,0,1,1,.29,4.06,4.06,0,0,0,4.17.26,3.69,3.69,0,0,1,1.4-.47c1.91.24,2.89-1.05,3.84-2.38a3.79,3.79,0,0,1,1.51-1.38,1.34,1.34,0,0,1,1.45.36l3.82,3.7c-5.26,9.81-9.88,19.89-12.82,30.67-12.39-12.83-18-28.79-20.94-45.89C64,290.9,63.24,284,62.28,277.18Z"/><path class="cls-3" d="M102.73,306.93C90.05,284,77.36,261,63.37,238.85c-.72-1.15-1.32-2.37-2-3.56.5-11.09,1.14-22.17,3.13-33.13,6,24.3,15.41,47.44,24.61,70.63A312.61,312.61,0,0,0,104,304.9Z"/><path class="cls-1" d="M248.66,221.73c3.86,3.33,7.89,6.5,10.29,11.17a11,11,0,0,1-3.67,3.68,12.24,12.24,0,0,1-.82,1.21c-3.32,3.69-3.22,5.15.86,8.14,1.4,1,2.86,1.9,3.69,3.48,3.35,2.29,5.54,5.86,8.93,8.11l3.77,5.74a8.85,8.85,0,0,0,1.49,3.29c.82,2.64-2.05,1.85-2.81,3a7.56,7.56,0,0,0-4,1.51,1.56,1.56,0,0,0-1.54.92,4.53,4.53,0,0,0-3.32,1,21.37,21.37,0,0,1-2.28,1.18c.18.11.24-.08.37-.09.84-.39,1.64-.84,2.42-1.3a2.58,2.58,0,0,1,2.81-.47c-.33,3.39-3.6,4.89-5.49,4.33-3.57-1.06-5.88.68-8.18,2.16-13.71,8.83-25.93,19.19-33.4,34.15a21,21,0,0,0-2.23,3l-1.44,4.27c-1.26.88-1.54,2.31-2.06,3.61-1.08.9-1.21.08-1.34-.74.13-1.15-.35-2.37.38-3.46v.09c.48-1.24-.47-2.77.78-3.86v-.66c-1-1.89.24-3.81-.1-5.71a5.74,5.74,0,0,1,.17-2.26,9.78,9.78,0,0,0,.46-2.68,13,13,0,0,1,.32-2.72,10,10,0,0,0,.43-3.22,12.83,12.83,0,0,1,.19-2.23c.58-2.36.79-4.78,1.25-7.16a15.07,15.07,0,0,1,.24-1.64,23.1,23.1,0,0,0,.64-3.19,11.12,11.12,0,0,1,.3-1.61c.44-2.17.74-4.35,1.13-6.52a10.69,10.69,0,0,1,.32-1.67c.5-2.42.86-4.86,1.31-7.29a40.85,40.85,0,0,0,.89-4.51c.6-2.41,1.06-4.86,1.47-7.31a55.8,55.8,0,0,0,1.21-6.13,28.33,28.33,0,0,1,.77-3.88,29.18,29.18,0,0,0,.94-4.34c.32-1.25.61-2.5.88-3.76.48-2,.87-3.92,1.19-5.9a11.15,11.15,0,0,1,.31-1.61c.52-1.91.81-3.88,1.27-5.81a7,7,0,0,1,.26-1c.52-1.91.81-3.87,1.25-5.79.07-.37.16-.73.26-1.08.58-1.32.22-3.1,1.89-3.89,4.9.69,8.57,3.91,12.65,6.25C245.45,219.47,247,220.67,248.66,221.73Z"/><path class="cls-1" d="M212.6,307.24v2c-.48.48-.75,1.5-1.72.64q-3-4.44-6.08-8.9c-1.23-.85-1.92-2.34-3.37-3-3.25-4.3-6.69-8.42-11.34-11.33a9.72,9.72,0,0,0-3-3.12,250.37,250.37,0,0,0-23.49-17.77,1.29,1.29,0,0,1-.94-1.22c.3-2.42,2.3-3.56,3.83-5a9.7,9.7,0,0,0,3.58-3.36,113.5,113.5,0,0,1,7.74-8.67,13,13,0,0,0,4.07-3.78,10.17,10.17,0,0,1,1.61-1.73c.44-.47.44-.88-.16-1.23a42.38,42.38,0,0,0-4.69-1.19c-1.71-.5-3.47-.85-5.18-1.35-2.92-1.2-1.5-3-.44-4.46a76.17,76.17,0,0,1,22.18-20.32c1.25-.76,2.49-1.8,4.12-.88a8.78,8.78,0,0,1,1.49,4.13,10.89,10.89,0,0,0,1.63,4.85,3.33,3.33,0,0,1,.23,1.53c-.34,2.06.39,4,.76,6a13.66,13.66,0,0,0,1.22,4.33,3.37,3.37,0,0,1,.15,1,11.06,11.06,0,0,0,1.24,5.78,5.18,5.18,0,0,1,.1,2,8.72,8.72,0,0,0,1.55,4.92,3.31,3.31,0,0,1,.19,1.46,12.36,12.36,0,0,0,1.27,6.63,3.37,3.37,0,0,1,.15,1c-.15,2.22.55,4.31,1,6.44a6.78,6.78,0,0,1,.19,1A18.3,18.3,0,0,0,212,269.4a5.18,5.18,0,0,1,.1,2,12.92,12.92,0,0,0,1.5,5.64,3.74,3.74,0,0,1,.17,1,44.92,44.92,0,0,0,1.81,9.68l-.06,1.38c-1.53,2.22-1.06,4.85-1.52,7.29l.07,2.3c-.85.67-.71,1.7-1,2.6a9,9,0,0,0-.3,1.94A13.86,13.86,0,0,0,212.6,307.24Z"/><path class="cls-2" d="M199.05,212.76c-10.91,5.16-19.27,13.23-26.23,22.92-.88,1.23-.51,1.71.81,1.9a.66.66,0,0,1-.09.94l-.08.06a8.39,8.39,0,0,0-3.45,3.79,80.36,80.36,0,0,0-6.09,17.22c-.47,1.81-1.07,3.57-1.7,5.33a6.11,6.11,0,0,0-1.15,1.85,329.15,329.15,0,0,0-3.68,39.77c-.19,5.6.06,11.19.32,16.8.15,3,1,4.11,4.1,4.58A17.64,17.64,0,0,1,176.6,344a18.14,18.14,0,0,1-34.72,8.75A17.88,17.88,0,0,1,151,329.18c2.67-1.16,3.55-2.23,3.4-5.33-1.05-22.84.07-45.54,5.84-67.81a79.09,79.09,0,0,1,6.3-16.71c.48-.93,1.94-2.16-.4-2.75l.77-.73c1.21-.53,2-1.65,3-2.35,7.4-9.9,16.15-18.27,27.21-24,1.08-.56,2.06-1.47,3.44-1.18a2.78,2.78,0,0,1,.09,3.82A2.38,2.38,0,0,1,199.05,212.76Z"/><path class="cls-5" d="M210.25,336.39c-.24,2.85.75,5.78-.58,8.55C209.28,342.05,207.36,339.05,210.25,336.39Z"/><path class="cls-6" d="M211,323.43c.36.52.76.54,1.21.11h-.05c-.16,2.83-2,5.28-1.85,8.17-.2.33-.39.33-.6,0a23.94,23.94,0,0,1,.67-8.26C210.59,323.09,210.8,323.11,211,323.43Z"/><path class="cls-7" d="M209.62,345.83c-.26,3,.79,6.2-.78,9.13C209.06,351.91,208,348.75,209.62,345.83Z"/><path class="cls-8" d="M210.86,309.92l1.72-.64-.72,5.94C210.22,313.7,211.3,311.67,210.86,309.92Z"/><path class="cls-9" d="M211.87,315.88c-.13,1.31.31,2.74-.78,3.86C210.83,318.35,209,316.64,211.87,315.88Z"/><path class="cls-10" d="M187.11,283.62c1.44.62,3.21.91,3,3.12A5.8,5.8,0,0,1,187.11,283.62Z"/><path class="cls-11" d="M201.41,298.07c2.24-.29,2.5,1.68,3.37,2.95C203,300.79,202.32,299.31,201.41,298.07Z"/><path class="cls-12" d="M110.14,293.43l.72,1.72a2.51,2.51,0,0,1-1.44,2.09v-1.53C110.05,295.08,109.36,294,110.14,293.43Z"/><path class="cls-13" d="M211,323.43h-.62c.07-1.29-.67-2.74.74-3.78Z"/><path class="cls-14" d="M209.72,331.69h.6v3.7C208.73,334.39,209.91,332.92,209.72,331.69Z"/><path class="cls-15" d="M161.07,266.74a1.26,1.26,0,0,1,.65-1.66h0c.48-.76.91-1.57,2-1.62l-.1,2.4C162.72,266,161.65,265.66,161.07,266.74Z"/><path class="cls-1" d="M203.41,196.69c-18.7-3.77-33.21-13.4-42.42-30.41-1.92-3.82-2.68-8-3.3-12.12a57.27,57.27,0,0,0-5.28-17.72c-.59-1.18-1.4-2.42-.48-3.83a1.67,1.67,0,0,1,1.54-.64c2.57,1.59,2.89,4.51,4,6.94,2.07,4.64,3,5.25,8,4.44,6.93-1.13,13.36-3.84,19.85-6.37a106.26,106.26,0,0,1,18.75-6,47.3,47.3,0,0,1,17.72-1.46c2.92.68,6,.93,8.75,2.13,1.65.6,3.31,1.17,4.93,1.82,6.36,2.51,12.43,5.71,19,7.66a39,39,0,0,0,12.88,1.66c2.88-.13,4.64-1.24,5.1-4.3.22-1.44.13-3.36,2.24-3.82l.84.17c1.16,1.27.94,2.79.62,4.23-1.31,6-2,12.21-3.29,18.27a12.28,12.28,0,0,1-3.44,6.84c-5.59,9.58-12.53,17.84-22.05,23.86-6,3.77-12.45,6.11-19.08,8.22C220.05,199.56,211.77,200.43,203.41,196.69Z"/><path class="cls-16" d="M230.49,132.59l-8.26-2.06a24.06,24.06,0,0,0-2.7-5.68c-3.52-5.56-8.71-5.7-12.55-.31a25.43,25.43,0,0,0-3.29,7.44c-10.72,2.31-20.45,7.53-30.92,10.57-13.52,3.92-13.53,3.88-18.68-9.22-.18-.47-.42-.91-.62-1.36,10.65-5.43,18.32-13.45,20.44-25.49.75-4.26,1.91-5.32,6.3-5.39,10.6-.18,18.81-5.1,23.66-14.82,1-1.93,1.65-2.46,3.86-1.54a31.63,31.63,0,0,0,27.86-1.25c.92,8,4.68,13.67,12.88,15.67,1.5.37.93,1.49.82,2.42-.89,7.05,1.71,12.94,6.1,18.19,5.35,6.39,12,11.12,19.32,15a7.59,7.59,0,0,0-1.38,4.52c-.2,3.62-2.37,4.45-5.4,4.64a40.39,40.39,0,0,1-17.05-2.83,131.28,131.28,0,0,1-15.88-7c-.15-1.21.89-1.7,1.49-2.44a3.68,3.68,0,0,0-4.07-5.8,3.56,3.56,0,0,0-2.19,4.26C230.37,130.9,231,131.69,230.49,132.59Z"/><path class="cls-17" d="M151.93,132.61c5.25,9.45,6.31,20.11,8.75,30.37a24.25,24.25,0,0,1,.31,3.3c-1.62-1.44-3.7-1.09-5.58-1.35-9.69-1.34-19-11.76-19.18-21.46-.11-8.53,5.37-13.48,13.68-12.35Z"/><path class="cls-17" d="M269.44,164.24c3.75-9.42,4.48-19.48,6.11-29.34.77-1.54,1.53-3.09,2.29-4.63C286,128.34,292.89,136,291,145.15,289,154.86,279.47,164.5,269.44,164.24Z"/><path class="cls-1" d="M349.52,229.94c1.33,1.45,3.72,1.63,4.52,3.74.42,1.5-.72,2.3-1.56,3.14-6.89,7-12.12,15.16-16.87,23.67-.66,1.17-1.1,2.58-2.75,2.79-3.14-.44-4.83-2.93-6.73-5-4.54-4.86-8.05-10.28-9.17-17.08A12.11,12.11,0,0,1,318.8,232q6.75-9.34,18-6.7C341.47,225.63,345.46,227.87,349.52,229.94Z"/><path class="cls-17" d="M199.93,212c1.19-1.05.72-2.4.67-3.67,1.52-1.88.26-4.44,1.56-6.38,1.79-.06,2.94,1.22,4.27,2.08,7.58,4.88,13.66,4,19.32-2.92.64-.78,1-2.11,2.52-1.71.25,2.21.49,4.42.74,6.64,0,1.21.09,2.42.13,3.63a3.12,3.12,0,0,1,.66,2.26c-1.49,6.45-5.3,10.7-11.93,11.84s-11.61-1.73-15.69-6.64a24.45,24.45,0,0,1-1.77-2.41A3.25,3.25,0,0,1,199.93,212Z"/><path class="cls-2" d="M228.27,199.37c-.31.37-.63.74-.91,1.13-6.38,8.77-14.35,9.92-22.91,3.28-.77-.6-1.53-1.24-2.29-1.86.23-1.79-1.14-4,1.25-5.23,8.33,1.79,16.61.92,24.9-.37C228.3,197.34,228.28,198.35,228.27,199.37Z"/><path class="cls-18" d="M318.8,232.08c-2.73,11.6,3.51,25,14.33,30.78a12,12,0,0,1,2.78,1.06c7.71,4.85,15.93,6.81,24.93,4.42a1.71,1.71,0,0,1,1.4.33c-3.79,4.08-8.61,5-13.87,4.35-7.45-1-13.92-4.21-19.8-8.76a4.76,4.76,0,0,1-2.72-1.08c-6-6-10.93-12.55-11.46-21.47a16.8,16.8,0,0,0,.37-4,3.42,3.42,0,0,1,1.23-2.5C316.93,234.17,317.42,232.73,318.8,232.08Z"/><path class="cls-19" d="M297.14,170.84a6,6,0,0,1-11.9,0,6.21,6.21,0,0,1,6-6,5.92,5.92,0,0,1,5.9,6Z"/><path class="cls-1" d="M134,231.59c-14.35-7.53-18-23.64-8.11-36.11,3.63-4.58,8.75-6.78,14.26-8.2,9-.55,16.73,2.1,22.2,9.56a23,23,0,0,1-.49,28C155.3,233.1,144.45,235.73,134,231.59Z"/><path class="cls-20" d="M92.85,158.85c12-.07,23.91-10.21,26.21-22.35,4.7-9.24,3.38-22.23-3-29.29a6.62,6.62,0,0,1,4.68,3.32c4.4,6.49,5,13.56,3.53,21-2.08,10.32-6.51,19.22-15.2,25.63C104,161,97.4,161.67,92.85,158.85Z"/><path class="cls-21" d="M109.37,189.49c4,3.15-.59,2.54-1.53,3.53-4.35,1.48-6,4.13-4.13,8.69a2.26,2.26,0,0,1-1.08,3,2.43,2.43,0,0,1-.58.18c-1.77.43-2.38-.9-2.86-2.22-.91-2.46-.46-5.57-3.38-7.07-1.8.38-3.61.73-5.41,1.14-1,.21-1.81.1-2-1s.45-1.54,1.42-1.77c1.78-.43,3.55-.91,5.33-1.37,1.88.09,2.78-.62,2.26-2.64-.47-1.79-.83-3.6-1.24-5.41-.22-1-.53-2.12.77-2.48,1.54-.42,1.68.86,2,1.95.8,2.4.14,6.28,2.24,7C103.51,191.76,106.61,190.1,109.37,189.49Z"/><path class="cls-22" d="M152.1,180.41a6.23,6.23,0,0,1-6.08-5.86,6,6,0,0,1,11.91-.34A6.49,6.49,0,0,1,152.1,180.41Z"/><path class="cls-23" d="M170,233.5c-.73,1.14-.86,3.08-3,2.35C167.76,234.86,168.27,233.42,170,233.5Z"/><path class="cls-24" d="M310.63,266.5l.63-3.68q.38-3,.74-6a38.13,38.13,0,0,0,1.48-9,13,13,0,0,0,.85-5.23l.67-1c1.34,9.45,6.32,16.73,13.57,22.65l-1.51,2.38c-.67.74-1.49,1.4-1.47,2.54a48,48,0,0,0-5.3,7.95Z"/><path class="cls-25" d="M267.94,257.52c-4-1.55-6.17-5.17-8.93-8.11C263,251,265.15,254.61,267.94,257.52Z"/><path class="cls-26" d="M255.28,236.58A11.38,11.38,0,0,1,259,232.9c.66,0,1.27.1,1.48.88C258,233.36,257.77,237.06,255.28,236.58Z"/><path class="cls-27" d="M273.2,266.55c-1.38-.69-2.13-1.68-1.49-3.29A3.27,3.27,0,0,1,273.2,266.55Z"/><path class="cls-28" d="M266.43,271.08a3,3,0,0,1,4-1.53l0,0A6.51,6.51,0,0,1,266.43,271.08Z"/><path class="cls-29" d="M215.59,316c.25-1.36.43-2.78,2.23-3C217.53,314.33,217.21,315.64,215.59,316Z"/><path class="cls-30" d="M212.17,323.51h.05c-.15-1.56,0-2.92,1.93-3.3C213.76,321.49,213.64,322.91,212.17,323.51Z"/><path class="cls-31" d="M264.89,272.36l-2.84,1c-.8.38-.88-.05-.78-.69,1.12-.67,2.2-1.61,3.62-.66Z"/><path class="cls-3" d="M95.81,195.61c1.83-.69,3-.54,3.21,1.87a42.11,42.11,0,0,0,1.31,5.76c.19.8.62,1.39,1.52,1.27,1.09-.14,1.37-.92,1.21-1.89-.12-.73-.32-1.44-.47-2.17-1.31-6.38-1.31-6.38,5.25-7.43,1.16,1.8,0,3.63-.11,5.38-1.53,17.78-.61,35.58-.43,53.36.12,11.66,1.35,23.3,2.08,34.94.22,1.11,1.17,2.39-.7,3-2-15.95-3.65-31.95-5.84-47.89-2-14.47-4.09-28.9-6.89-43.23A19.7,19.7,0,0,1,95.81,195.61Z"/><path class="cls-12" d="M108.68,289.71c1-.82.51-2,.7-3,1.05,1.15.61,2.55.64,3.86-.65.64,0,1.7-.73,2.29C108.37,291.94,108.64,290.8,108.68,289.71Z"/><path class="cls-3" d="M109.29,292.85c.12-.8-.12-1.72.73-2.29l.12,2.87c-.12.8.12,1.71-.73,2.28Z"/><path class="cls-32" d="M362.24,268.67c-10.86,3.89-20.39,1.08-29.11-5.81,5.81-10.56,12.39-20.57,20.91-29.18,1.69,0,2.34,1.69,3.68,2.26,4.33,4.67,8.24,9.57,9.94,15.91C369.56,259,368,264.09,362.24,268.67Z"/><path class="cls-33" d="M362.55,297.19c-2.55-.24-5.31-2.49-7.43-1.1-1.91,1.25-1.42,4.55-2.2,6.89-.3.93-.51,2.12-1.88,1.77s-.9-1.52-.82-2.47c.2-2.56,2.55-5.46,1-7.37-1.25-1.56-4.52-1.52-6.91-2.13-1-.26-2.08-.63-1.84-1.86s1.38-1.19,2.43-1c2.51.55,5.42,2.46,7.41,1.28s1.42-4.77,2.31-7.2c.36-1,.63-2.05,2-1.6,1,.34.93,1.23.79,2.18-.38,2.65-2.7,5.73-1.19,7.68,1.26,1.63,4.77,1.5,7.26,2.21.84.24,1.82.66,1.56,1.74C364.7,297.54,363.55,297.32,362.55,297.19Z"/><path class="cls-24" d="M77.11,310.48l-1.46-2.05c-1.37-1-1.45-2.61-1.82-4.08,0-1.53,0-3.06,0-4.59.45-1.05.53-2.23,1.07-3.25l2-2.16,1-.15a1.88,1.88,0,0,1,2.62.45l0,0c4,4.22,8.87,7.48,12.68,11.89a3.21,3.21,0,0,1,.8,1.64,1.48,1.48,0,0,1-.39,1l-.71,1.27c-1.39,1.27-2.64,2.78-4.82,2.51a1.09,1.09,0,0,0-.41.58c-1.91.28-3.82.52-5.56-.63H82A7.92,7.92,0,0,1,77.11,310.48Z"/><path class="cls-34" d="M95.31,307c-.45-2.49,1.15-4.85.45-7.35-.33-.75,0-.91.68-.79.22,2.74,1,5.54-.84,8.07Z"/><path class="cls-35" d="M87.7,291.81a14.63,14.63,0,0,0-5.36,0c-.36-.17-.83-.2-.92-.71a8.62,8.62,0,0,1,7.2,0C88.53,291.62,88.06,291.65,87.7,291.81Z"/><path class="cls-36" d="M81.42,291.11l.92.71-3.44.83C78.94,290.83,80.49,291.48,81.42,291.11Z"/><path class="cls-36" d="M87.7,291.81l.92-.7a3.85,3.85,0,0,1,3,1.65C90,293.58,89.07,291.88,87.7,291.81Z"/><path class="cls-37" d="M96.44,298.84l-.68.79a7.92,7.92,0,0,1-1.39-3.9C95.73,296.32,96.08,297.59,96.44,298.84Z"/><path class="cls-38" d="M95.31,307l.29-.07c.36.87-.25,1.55-.46,2.31h-1.5a4,4,0,0,1,.14-.74Z"/><path class="cls-39" d="M309.52,79.49c2.17-.47,2.57.68,2.9,2.63.44,2.54-.84,6.08,1.15,7.38,1.83,1.19,5.07.51,7.62.17s2.18,1.15,2.36,2.64c.21,1.71.17,2.86-2.09,2.92-2.7.07-6.13-1.07-7.92.75s.08,5.21,0,7.92c0,1.67-.4,2.6-2.26,2.51-1.58-.07-3.44.45-3.48-2.1,0-.63,0-1.25-.06-1.87-.23-6.54-.23-6.54-6.89-6.45-2.19,0-4.72.73-4.38-3.06.14-1.56.54-2.2,2.16-2.25,2.72-.08,6.16.92,7.94-.91s.27-5.16.28-7.82C306.88,79.92,307.6,79.22,309.52,79.49Z"/><path class="cls-1" d="M297.6,311.46c-.09,15.72-8.45,26.75-22,34.57-1.66,1-2.81.27-4.11-.47-9.91-5.69-13.67-13.67-11.47-25.54,2.76-14.9,9.6-27.86,19.51-39.28,1.64-1.89,2.89-1.77,4.69-.48,8.34,6,11.56,14.65,12.88,24.32C297.34,306.67,297.4,308.8,297.6,311.46Z"/><path class="cls-40" d="M229.07,211.85c0-.74.05-1.47.07-2.21,7.85,1.87,13.85,6.71,19.52,12.09-5.51-2-10.13-5.69-15.38-8.2l-2-.93c-.52-.35-1.11.05-1.64-.15A1.08,1.08,0,0,1,229.07,211.85Z"/><path class="cls-41" d="M82.14,312.92c1.86.13,3.77-.17,5.56.64C85.67,314.83,83.7,315.64,82.14,312.92Z"/><path class="cls-42" d="M77.11,310.48,82,313C79.37,314,78.1,312.54,77.11,310.48Z"/><path class="cls-42" d="M88.11,313l4.82-2.51C92,312.55,90.71,314.05,88.11,313Z"/><path class="cls-43" d="M74.23,304.66l1.42,3.77c-1.8-.22-2-1.57-2.14-3C73.74,305.17,73.79,304.73,74.23,304.66Z"/><path class="cls-44" d="M74.23,304.66l-.72.78a12.84,12.84,0,0,1,.1-6.6c.7-.11,1,.1.69.82Z"/><path class="cls-45" d="M74.3,299.66l-.69-.82c.19-.92.35-1.84,1.3-2.33A2.93,2.93,0,0,1,74.3,299.66Z"/><path class="cls-46" d="M213.29,277.68c1.52,2,.06,5.31,2.91,6.74.31,1.18-.23,2.21-.57,3.28C213,284.79,212.85,281.3,213.29,277.68Z"/><path class="cls-47" d="M217.93,274.9c-1.41-2.69.08-5.09.74-7.58.19-.35.41-.35.65-.05A22.63,22.63,0,0,1,217.93,274.9Z"/><path class="cls-48" d="M219.47,262.13c.48-2.5.95-5,1.43-7.51.78-.08,1.13.18.79,1a24.83,24.83,0,0,1-1.52,7.43C219.73,262.9,219.68,262.45,219.47,262.13Z"/><path class="cls-49" d="M216.36,283.19c-.87-2.6-.8-5,1.37-7A20.69,20.69,0,0,1,216.36,283.19Z"/><path class="cls-50" d="M214.05,296.37c-.32-2.6-.76-5.23,1.52-7.29C214.59,291.41,215.26,294.09,214.05,296.37Z"/><path class="cls-51" d="M221.69,255.61l-.79-1c.47-1.75.28-3.66,1.31-5.27.27-.34.53-.34.79,0A19,19,0,0,1,221.69,255.61Z"/><path class="cls-52" d="M224.66,236.66c.63-1.8-.24-4.18,2-5.36a16.68,16.68,0,0,1-1.32,6.19C224.93,237.39,224.89,237,224.66,236.66Z"/><path class="cls-53" d="M228.34,223.32c-.73-2.35-.51-4.48,1.4-6.24A14.33,14.33,0,0,1,228.34,223.32Z"/><path class="cls-54" d="M226.92,230a5.29,5.29,0,0,1,1.32-6.21A15.25,15.25,0,0,1,226.92,230Z"/><path class="cls-55" d="M219.47,262.13c.23.31.47.61.7.91a8.71,8.71,0,0,1-.85,4.23,4.74,4.74,0,0,1-.65.05C218.93,265.59,219.2,263.86,219.47,262.13Z"/><path class="cls-56" d="M229.84,216.59c-1.24-1.59.31-3.11.11-4.67a1.34,1.34,0,0,1,1.32.68Z"/><path class="cls-57" d="M212.6,307.24c-1.47-1.33-.78-2.7-.08-4.07.65.28.29,1,.68,1.44A2.54,2.54,0,0,1,212.6,307.24Z"/><path class="cls-58" d="M223.07,245.63a8.63,8.63,0,0,1,.91-4.49c.18-.36.36-.34.54,0a9.57,9.57,0,0,1-.8,4.48C223.5,246,223.29,246,223.07,245.63Z"/><path class="cls-59" d="M224.52,241.14H224c.23-1.5.45-3,.68-4.48l.72.83C225.3,238.76,225.36,240.05,224.52,241.14Z"/><path class="cls-60" d="M212.69,301.06c-.08-1.13-.42-2.42,1.43-2.39,0,1.09.12,2.22-.68,3.15C213,301.77,212.94,301.32,212.69,301.06Z"/><path class="cls-61" d="M261.27,272.66l.78.69c-.81.41-1.61.83-2.41,1.25a1,1,0,0,1-.72-.6Z"/><path class="cls-62" d="M223.07,245.63h.65l-.72,3.73h-.79A6.58,6.58,0,0,1,223.07,245.63Z"/><path class="cls-63" d="M212.69,301.06l.75.76-.24,2.79-.68-1.44Z"/><path class="cls-64" d="M258.92,274l.72.6-3.38,1.57A4,4,0,0,1,258.92,274Z"/><path class="cls-65" d="M163.72,263.45l-2,1.62a88.49,88.49,0,0,1,8.19-24.8c.84-1.67,1.92-2.42,3.75-2.07,1.83,0,3.53.75,5.3,1.09,1.74.58,3.65.63,5.25,1.67a1.42,1.42,0,0,1,.1,1.58,2.85,2.85,0,0,0-1.71,1.67c-1.74.86-2.69,2.69-4.41,3.57l-7.56,9.15c-1.43.68-2.27,2.12-3.67,2.84Z"/><path class="cls-66" d="M211.23,270.94c2.34,1.4,1.36,3.93,2,5.9C210.7,275.51,211.82,272.93,211.23,270.94Z"/><path class="cls-53" d="M208.81,256c.6,2.29,2.11,4.48.85,7C208.93,260.69,207.75,258.47,208.81,256Z"/><path class="cls-67" d="M209.74,263.49c2.17,1.48,1.45,3.95,2,6C209.22,268.1,210.29,265.52,209.74,263.49Z"/><path class="cls-68" d="M207.31,248.45a20.48,20.48,0,0,1,1.43,7A6.37,6.37,0,0,1,207.31,248.45Z"/><path class="cls-69" d="M204.33,234.28c1,1.88,1,4,1.45,6C203.63,238.69,203.59,236.58,204.33,234.28Z"/><path class="cls-70" d="M184,241.38l-5.11-1.81c-.25-.13-.34-.27-.26-.41s.17-.21.26-.21a9.1,9.1,0,0,1,5.25,1.4.68.68,0,0,1,0,1Z"/><path class="cls-71" d="M205.26,241.79c2.11,1.39,1.35,3.79,2,5.69C204.81,246.22,205.85,243.72,205.26,241.79Z"/><path class="cls-72" d="M178.93,239v.62a9.49,9.49,0,0,1-5.24-1.37.68.68,0,0,1-.06-.62C175.41,238,177.3,238,178.93,239Z"/><path class="cls-73" d="M203,227.44a17.39,17.39,0,0,1,1.27,6.29c-1.8-1-1.33-2.71-1.46-4.24A1.73,1.73,0,0,1,203,227.44Z"/><path class="cls-74" d="M178.22,247.78c1.36-1.33,1.94-3.61,4.41-3.57C181.29,245.56,180.71,247.85,178.22,247.78Z"/><path class="cls-75" d="M200.76,214.1l.1,3.05a.57.57,0,0,1-.81,0h0c-.33-1.48-.66-3-1-4.44l.87-.79C200.21,212.68,200.49,213.39,200.76,214.1Z"/><path class="cls-76" d="M203,227.44c-.06.68-.13,1.36-.19,2.05-.55-2.12-2.05-4.14-.73-6.47A9.12,9.12,0,0,1,203,227.44Z"/><path class="cls-77" d="M200,217.2h.82q.59,2.45,1.18,4.89C199.59,221.16,200.86,218.75,200,217.2Z"/><path class="cls-78" d="M167,259.77c1-1.21,1.59-3,3.67-2.84C169.64,258.14,169.08,259.94,167,259.77Z"/><path class="cls-26" d="M184,241.38l.14-1c.45.08,1.22.05,1.29.26.33,1-.58,1.37-1.13,1.93Z"/><path class="cls-2" d="M148.33,340.92c1.41-3.31,4.73-4.4,7.38-6.26,1.79.23,3.58-.12,5.37,0a12.34,12.34,0,0,1,8.09,8c.75,1.29.25,2.69.39,4-.6,1.39-.78,2.95-1.77,4.17-1.5,2.74-3.25,5.1-6.89,4.73-2,1.81-4,1-6-.05-1.25.11-1.87-1-2.82-1.47-.9-.24-1.44-1.08-2.3-1.4l-1.54-3.14a16.51,16.51,0,0,1-.49-3.2,2.42,2.42,0,0,1,0-1.83A23.67,23.67,0,0,1,148.33,340.92Z"/><path class="cls-79" d="M161.08,334.66a4.52,4.52,0,0,1-5.37,0C157.5,333.77,159.29,333.31,161.08,334.66Z"/><path class="cls-80" d="M154.91,355.59c2,0,4,1,6,.05C158.88,358.28,156.89,357.72,154.91,355.59Z"/><path class="cls-81" d="M167.79,350.91c.43-1.19.31-2.62,1.44-3.52.17-.34.35-.37.57-.05C169.28,348.62,169.6,350.37,167.79,350.91Z"/><path class="cls-82" d="M148.33,340.92c.72,1.19-.36,2.27-.21,3.42-.18.26-.38.29-.6.05A4.65,4.65,0,0,1,148.33,340.92Z"/><path class="cls-83" d="M169.8,347.34a5.48,5.48,0,0,0-.57.05l-.06-4.68C170.41,344.11,170,345.75,169.8,347.34Z"/><path class="cls-84" d="M147.52,344.39l.6-.05v2.34c-.23.31-.43.31-.61-.05a1.34,1.34,0,0,1-.38-1.86A1.56,1.56,0,0,1,147.52,344.39Z"/><path class="cls-82" d="M147.51,346.63c.2,0,.41,0,.61.05,0,1,.09,1.93.13,2.9C147.19,348.8,147.52,347.67,147.51,346.63Z"/><path class="cls-85" d="M149.79,352.72a2.24,2.24,0,0,1,2.3,1.4C150.72,354.65,150.47,353.34,149.79,352.72Z"/><path class="cls-39" d="M203.69,132c-.88-5.36,4.78-12.43,9.94-12.4,4.13,0,9.32,6.64,8.6,11C216,129.91,209.82,130.84,203.69,132Z"/><path class="cls-86" d="M230.49,132.59c-1.53-2-2-4-.45-6.16a4.42,4.42,0,0,1,4.56-1.91,4.62,4.62,0,0,1,3.83,3.63c.76,3-1.24,4.54-3.43,5.9Z"/><path class="cls-87" d="M185.62,120.7c-2.29,0-3.79.1-4.58-1.6s-.12-2.93.88-4.09a13.61,13.61,0,0,1,9.28-4.9,4.6,4.6,0,0,1,5.34,3.59c.67,2.39-1,3.63-2.81,4.63A21.75,21.75,0,0,1,185.62,120.7Z"/><path class="cls-87" d="M239,120.68a21.74,21.74,0,0,1-8.21-2.48c-1.81-1-3-2.25-2.53-4.43a4.46,4.46,0,0,1,4.12-3.67c3.49-.44,9.35,2.64,11.05,5.74a3.24,3.24,0,0,1,.15,3.5C242.6,120.87,241.08,120.76,239,120.68Z"/><path class="cls-88" d="M193,124.44c2.51.24,4.18,1.85,4.46,4.67.24,2.4-2.21,4.82-4.65,4.87a5.09,5.09,0,0,1-4.85-4.71A5,5,0,0,1,193,124.44Z"/><path class="cls-39" d="M143.82,223.77c-1.91.25-2.14-1.08-2.27-2.77-.17-2.44,1-5.55-.76-7.14s-4.77-.41-7.22-.34c-2.24.06-3.06-.69-3.18-2.94-.13-2.59,1.44-2.36,3.1-2.43,7.31-.29,7.35-.31,7.26-7.7,0-2-.09-3.52,2.78-3.53s2.49,1.62,2.55,3.36c.25,7.14.26,7.18,7.63,7,2.07,0,3.65-.08,3.56,2.77-.06,2-.73,2.52-2.61,2.6-2.55.11-6-1.1-7.4.86-1.22,1.77-.54,5-.27,7.61S145.73,223.68,143.82,223.77Z"/></svg>