<?xml version="1.0" encoding="utf-8"?>
<!-- Generator: Adobe Illustrator 26.0.1, SVG Export Plug-In . SVG Version: 6.00 Build 0)  -->
<svg version="1.1" id="圖層_1" xmlns="http://www.w3.org/2000/svg" xmlns:xlink="http://www.w3.org/1999/xlink" x="0px" y="0px"
	 viewBox="0 0 384 384" style="enable-background:new 0 0 384 384;" xml:space="preserve">
<style type="text/css">
	.st0{fill:#4B6E7C;}
</style>
<g>
	<path class="st0" d="M0.37,192.07c2.7-3.19,5.17-6.61,8.13-9.52C60.76,131.08,113.08,79.67,165.4,28.27
		c11.87-11.67,27.26-14.88,41.53-8.2c4.2,1.96,8.18,4.89,11.5,8.14c53.65,52.54,107.18,105.2,160.73,157.85
		c4.49,4.41,5.57,9,3.35,13.82c-2,4.35-6.5,7.3-11.22,6.24c-2.96-0.67-6.06-2.41-8.25-4.55c-38.71-37.85-77.29-75.83-115.89-113.78
		c-14.68-14.43-29.34-28.87-44.04-43.28c-7.5-7.35-14.75-7.33-22.2-0.01C127.62,96.88,74.33,149.26,21.04,201.63
		c-5.35,5.26-11.09,6.32-15.99,2.48c-1.95-1.53-3.15-4-4.69-6.05C0.37,196.06,0.37,194.07,0.37,192.07z"/>
	<path class="st0" d="M191.09,64.32c11.54,11.32,21.96,21.52,32.35,31.74c41.1,40.39,82.13,80.85,123.38,121.1
		c3.7,3.61,5.23,7.04,5.18,12.2c-0.26,29.31-0.05,58.63-0.15,87.94c-0.08,24.01-14.94,43.27-37.57,48.69
		c-4.07,0.98-8.39,1.31-12.59,1.32c-73.1,0.08-146.19,0.08-219.29,0.04c-29.13-0.02-50.19-21.11-50.27-50.32
		c-0.08-29.56,0.08-59.13-0.12-88.69c-0.03-4.47,1.21-7.49,4.43-10.65c45.49-44.47,90.85-89.07,136.15-133.72
		C178.89,77.76,184.74,71.09,191.09,64.32z M158.29,274.47c0,11.82-0.01,23.14,0,34.47c0.01,8.55,4.27,12.84,12.89,12.86
		c13.85,0.04,27.69,0.05,41.54,0c8.51-0.03,12.85-4.43,12.87-12.96c0.02-10.1,0-20.21,0.01-30.31c0-1.31,0.12-2.61,0.19-4.06
		c11.68,0,22.9,0.02,34.12-0.01c8.59-0.02,12.94-4.33,12.96-12.81c0.02-13.85,0.02-27.69,0-41.54c-0.01-8.48-4.42-12.91-12.91-12.93
		c-10.1-0.03-20.21-0.01-30.31-0.01c-1.3,0-2.6,0-4.05,0c0-12,0.03-23.34-0.01-34.69c-0.03-8.03-4.57-12.58-12.49-12.6
		c-14.1-0.02-28.19-0.02-42.29,0c-8.02,0.01-12.49,4.48-12.51,12.5c-0.03,10.23-0.01,20.46-0.01,30.69c0,1.31,0,2.61,0,4.1
		c-11.95,0-23.3-0.03-34.64,0.01c-8.26,0.03-12.66,4.43-12.68,12.75c-0.04,13.85-0.03,27.69,0,41.54
		c0.02,8.8,4.24,12.98,13.12,12.99C135.29,274.48,146.5,274.47,158.29,274.47z"/>
	<path class="st0" d="M180.74,182.5c7.58,0,14.76,0,22.39,0c0,2.47,0,4.8,0,7.13c0,9.35-0.04,18.7,0.02,28.06
		c0.04,7.39,4.49,11.88,11.89,11.92c11.58,0.07,23.17,0.02,35.06,0.02c0,7.47,0,14.72,0,22.38c-5.85,0-11.68,0-17.5,0
		c-5.49,0-10.97-0.01-16.46,0c-8.71,0.02-12.99,4.34-13,13.15c-0.01,9.98,0,19.95,0,29.93c0,1.22,0,2.45,0,3.97
		c-7.47,0-14.63,0-22.39,0c0-1.2,0-2.51,0-3.82c0-10.22,0.03-20.45-0.01-30.67c-0.03-7.96-4.59-12.52-12.54-12.55
		c-10.22-0.03-20.45-0.01-30.67-0.01c-1.22,0-2.44,0-3.88,0c0-7.52,0-14.68,0-22.38c2.66,0,5.23,0,7.81,0
		c8.85,0,17.71,0.03,26.56-0.01c8.31-0.04,12.71-4.42,12.73-12.67C180.76,205.62,180.74,194.27,180.74,182.5z"/>
</g>
</svg>
